G04*
G04 #@! TF.GenerationSoftware,Altium Limited,Altium Designer,21.4.1 (30)*
G04*
G04 Layer_Physical_Order=2*
G04 Layer_Color=16711680*
%FSLAX24Y24*%
%MOIN*%
G70*
G04*
G04 #@! TF.SameCoordinates,E320E570-2092-40B9-98FA-40774E7A4B3A*
G04*
G04*
G04 #@! TF.FilePolarity,Positive*
G04*
G01*
G75*
%ADD10C,0.0100*%
%ADD12C,0.0236*%
%ADD34C,0.0709*%
%ADD36C,0.0551*%
%ADD37C,0.0630*%
%ADD38R,0.0591X0.0613*%
%ADD41R,0.0594X0.0475*%
%ADD44R,0.0613X0.0591*%
%ADD51C,0.0295*%
%ADD52C,0.0157*%
%ADD53O,0.0787X0.0630*%
%ADD54C,0.0787*%
%ADD55C,0.2362*%
%ADD56C,0.0600*%
%ADD57C,0.1142*%
%ADD58C,0.0354*%
%ADD59C,0.0472*%
%ADD60C,0.0197*%
%ADD61R,0.2087X0.0787*%
%ADD62O,0.0650X0.0256*%
%ADD63O,0.0768X0.0236*%
%ADD64O,0.0236X0.0768*%
G36*
X23067Y11561D02*
X23018Y11548D01*
X23000Y11580D01*
X22879Y11701D01*
X22731Y11786D01*
X22566Y11831D01*
X22395D01*
X22230Y11786D01*
X22081Y11701D01*
X21960Y11580D01*
X21875Y11432D01*
X21843Y11312D01*
X21222D01*
X21172Y11302D01*
X21130Y11274D01*
X20696Y10841D01*
X19757D01*
Y11045D01*
X19005D01*
Y10841D01*
X18202D01*
X17789Y11254D01*
X17746Y11283D01*
X17696Y11293D01*
X16919D01*
X16887Y11412D01*
X16801Y11560D01*
X16680Y11681D01*
X16532Y11767D01*
X16367Y11811D01*
X16196D01*
X16031Y11767D01*
X15883Y11681D01*
X15762Y11560D01*
X15676Y11412D01*
X15632Y11247D01*
Y11076D01*
X15676Y10911D01*
X15762Y10763D01*
X15883Y10642D01*
X16031Y10556D01*
X16196Y10512D01*
X16367D01*
X16532Y10556D01*
X16680Y10642D01*
X16801Y10763D01*
X16887Y10911D01*
X16919Y11030D01*
X17642D01*
X18055Y10617D01*
X18098Y10588D01*
X18148Y10578D01*
X19005D01*
Y10412D01*
X19757D01*
Y10578D01*
X20751D01*
X20801Y10588D01*
X20843Y10617D01*
X21277Y11050D01*
X21843D01*
X21875Y10930D01*
X21960Y10782D01*
X22081Y10661D01*
X22230Y10576D01*
X22395Y10532D01*
X22566D01*
X22731Y10576D01*
X22879Y10661D01*
X23000Y10782D01*
X23018Y10814D01*
X23067Y10801D01*
Y7327D01*
X3547D01*
Y26059D01*
X8192D01*
X8202Y26009D01*
X7986Y25920D01*
X7780Y25782D01*
X7604Y25606D01*
X7466Y25400D01*
X7371Y25171D01*
X7323Y24927D01*
Y24679D01*
X7371Y24436D01*
X7466Y24206D01*
X7604Y24000D01*
X7780Y23825D01*
X7986Y23687D01*
X8215Y23592D01*
X8459Y23543D01*
X8707D01*
X8950Y23592D01*
X9179Y23687D01*
X9386Y23825D01*
X9561Y24000D01*
X9699Y24206D01*
X9794Y24436D01*
X9843Y24679D01*
Y24927D01*
X9794Y25171D01*
X9699Y25400D01*
X9561Y25606D01*
X9386Y25782D01*
X9179Y25920D01*
X8964Y26009D01*
X8974Y26059D01*
X15278D01*
X15288Y26009D01*
X15073Y25920D01*
X14866Y25782D01*
X14691Y25606D01*
X14553Y25400D01*
X14458Y25171D01*
X14409Y24927D01*
Y24679D01*
X14458Y24436D01*
X14553Y24206D01*
X14691Y24000D01*
X14866Y23825D01*
X15073Y23687D01*
X15302Y23592D01*
X15545Y23543D01*
X15793D01*
X16037Y23592D01*
X16266Y23687D01*
X16472Y23825D01*
X16648Y24000D01*
X16786Y24206D01*
X16881Y24436D01*
X16929Y24679D01*
Y24927D01*
X16881Y25171D01*
X16786Y25400D01*
X16648Y25606D01*
X16472Y25782D01*
X16266Y25920D01*
X16050Y26009D01*
X16060Y26059D01*
X23067D01*
Y11561D01*
D02*
G37*
%LPC*%
G36*
X4134Y24463D02*
Y24114D01*
X4482D01*
X4459Y24203D01*
X4402Y24301D01*
X4321Y24382D01*
X4222Y24439D01*
X4134Y24463D01*
D02*
G37*
G36*
X3976D02*
X3888Y24439D01*
X3789Y24382D01*
X3709Y24301D01*
X3652Y24203D01*
X3628Y24114D01*
X3976D01*
Y24463D01*
D02*
G37*
G36*
X6102Y24429D02*
X5945D01*
X5801Y24369D01*
X5690Y24258D01*
X5630Y24114D01*
Y23957D01*
X5690Y23812D01*
X5801Y23702D01*
X5945Y23642D01*
X6102D01*
X6247Y23702D01*
X6357Y23812D01*
X6417Y23957D01*
Y24114D01*
X6357Y24258D01*
X6247Y24369D01*
X6102Y24429D01*
D02*
G37*
G36*
X4482Y23957D02*
X4134D01*
Y23608D01*
X4222Y23632D01*
X4321Y23689D01*
X4402Y23770D01*
X4459Y23868D01*
X4482Y23957D01*
D02*
G37*
G36*
X3976D02*
X3628D01*
X3652Y23868D01*
X3709Y23770D01*
X3789Y23689D01*
X3888Y23632D01*
X3976Y23608D01*
Y23957D01*
D02*
G37*
G36*
X19236Y23110D02*
X19111D01*
X18995Y23062D01*
X18949Y23016D01*
X18728D01*
X18702Y23043D01*
X18586Y23091D01*
X18461D01*
X18345Y23043D01*
X18257Y22954D01*
X18209Y22838D01*
Y22713D01*
X18257Y22597D01*
X18345Y22509D01*
X18461Y22461D01*
X18586D01*
X18702Y22509D01*
X18748Y22555D01*
X18968D01*
X18995Y22528D01*
X19111Y22480D01*
X19162D01*
X21254Y20388D01*
X21329Y20338D01*
X21417Y20320D01*
X21649D01*
X21685Y20267D01*
X21809Y20184D01*
X21812Y20157D01*
X21809Y20131D01*
X21685Y20048D01*
X21598Y19917D01*
X21567Y19764D01*
X21573Y19734D01*
X19589Y17751D01*
X19467D01*
X19430Y17787D01*
X19315Y17835D01*
X19189D01*
X19074Y17787D01*
X19037Y17751D01*
X18758D01*
X18722Y17787D01*
X18606Y17835D01*
X18481D01*
X18365Y17787D01*
X18276Y17698D01*
X18228Y17582D01*
Y17457D01*
X18276Y17341D01*
X18365Y17253D01*
X18481Y17205D01*
X18606D01*
X18722Y17253D01*
X18758Y17289D01*
X19037D01*
X19074Y17253D01*
X19189Y17205D01*
X19315D01*
X19430Y17253D01*
X19467Y17289D01*
X19685D01*
X19773Y17306D01*
X19848Y17356D01*
X21531Y19039D01*
X21575Y19015D01*
X21567Y18976D01*
X21598Y18823D01*
X21685Y18693D01*
X21815Y18606D01*
X21969Y18575D01*
X22126D01*
X22280Y18606D01*
X22410Y18693D01*
X22497Y18823D01*
X22527Y18976D01*
X22497Y19130D01*
X22410Y19260D01*
X22286Y19343D01*
X22282Y19370D01*
X22286Y19397D01*
X22410Y19480D01*
X22497Y19610D01*
X22527Y19764D01*
X22497Y19917D01*
X22410Y20048D01*
X22286Y20131D01*
X22282Y20157D01*
X22286Y20184D01*
X22410Y20267D01*
X22497Y20398D01*
X22527Y20551D01*
X22497Y20705D01*
X22410Y20835D01*
X22286Y20918D01*
X22282Y20945D01*
X22286Y20972D01*
X22410Y21055D01*
X22497Y21185D01*
X22527Y21339D01*
X22497Y21492D01*
X22410Y21622D01*
X22280Y21709D01*
X22126Y21740D01*
X21969D01*
X21815Y21709D01*
X21685Y21622D01*
X21598Y21492D01*
X21567Y21339D01*
X21598Y21185D01*
X21685Y21055D01*
X21809Y20972D01*
X21812Y20945D01*
X21809Y20918D01*
X21685Y20835D01*
X21649Y20782D01*
X21513D01*
X19488Y22807D01*
Y22858D01*
X19440Y22974D01*
X19352Y23062D01*
X19236Y23110D01*
D02*
G37*
G36*
X8801Y22856D02*
X8050D01*
Y22720D01*
X7997D01*
X7940Y22776D01*
X7846Y22815D01*
X7744D01*
X7650Y22776D01*
X7578Y22704D01*
X7539Y22610D01*
Y22508D01*
X7578Y22414D01*
X7650Y22342D01*
X7744Y22303D01*
X7846D01*
X7940Y22342D01*
X7997Y22398D01*
X8050D01*
Y22223D01*
X8801D01*
Y22856D01*
D02*
G37*
G36*
X7432Y22933D02*
X7087D01*
Y22599D01*
X7432D01*
Y22933D01*
D02*
G37*
G36*
X6929D02*
X6583D01*
Y22599D01*
X6929D01*
Y22933D01*
D02*
G37*
G36*
X6291Y22540D02*
X5945D01*
Y22205D01*
X6291D01*
Y22540D01*
D02*
G37*
G36*
X5787D02*
X5442D01*
Y22205D01*
X5787D01*
Y22540D01*
D02*
G37*
G36*
X5118Y25413D02*
X4961D01*
X4816Y25353D01*
X4706Y25243D01*
X4646Y25098D01*
Y24941D01*
X4706Y24797D01*
X4816Y24686D01*
X4961Y24626D01*
X5118D01*
X5262Y24686D01*
X5373Y24797D01*
X5399Y24859D01*
X6095D01*
X7760Y23194D01*
X7760Y23194D01*
X7813Y23159D01*
X7874Y23147D01*
X10130D01*
X10413Y22863D01*
Y22784D01*
X10452Y22690D01*
X10491Y22651D01*
X10475Y22607D01*
X10470Y22601D01*
X10411Y22589D01*
X10359Y22554D01*
X9176Y21371D01*
X9141Y21319D01*
X9129Y21258D01*
X9129Y21258D01*
Y20240D01*
X8967D01*
X8890Y20225D01*
X8869Y20211D01*
X8833Y20247D01*
X8847Y20268D01*
X8862Y20344D01*
Y20876D01*
X8847Y20953D01*
X8803Y21018D01*
X8738Y21061D01*
X8661Y21077D01*
X8585Y21061D01*
X8540Y21031D01*
X8504Y21022D01*
X8468Y21031D01*
X8423Y21061D01*
X8346Y21077D01*
X8270Y21061D01*
X8225Y21031D01*
X8189Y21022D01*
X8153Y21031D01*
X8108Y21061D01*
X8031Y21077D01*
X8027Y21076D01*
X8003Y21122D01*
X8277Y21396D01*
X8801D01*
Y22029D01*
X8050D01*
Y21623D01*
X7768Y21342D01*
X6654D01*
X6592Y21329D01*
X6540Y21295D01*
X6540Y21295D01*
X6358Y21113D01*
X6323Y21061D01*
X6315Y21018D01*
X6315Y21018D01*
X6271Y20953D01*
X6256Y20876D01*
Y20344D01*
X6271Y20268D01*
X6285Y20247D01*
X6249Y20211D01*
X6228Y20225D01*
X6152Y20240D01*
X5987D01*
Y20429D01*
X6044Y20485D01*
X6083Y20579D01*
Y20681D01*
X6044Y20775D01*
X5987Y20831D01*
Y21043D01*
X6251D01*
Y21257D01*
X6299D01*
X6299Y21257D01*
X6361Y21269D01*
X6413Y21304D01*
X6577Y21468D01*
X6623Y21449D01*
Y21437D01*
X7393D01*
Y22107D01*
X7432D01*
Y22441D01*
X7008D01*
X6583D01*
Y22107D01*
X6623D01*
Y21954D01*
X6579Y21925D01*
X6579Y21925D01*
X6297Y21643D01*
X6251Y21662D01*
Y21713D01*
X6291D01*
Y22048D01*
X5866D01*
X5442D01*
Y21713D01*
X5481D01*
Y21043D01*
X5666D01*
Y20831D01*
X5610Y20775D01*
X5571Y20681D01*
Y20579D01*
X5610Y20485D01*
X5666Y20429D01*
Y20240D01*
X5620D01*
X5543Y20225D01*
X5478Y20181D01*
X5435Y20116D01*
X5419Y20039D01*
X5435Y19963D01*
X5471Y19909D01*
X5450Y19895D01*
X5398Y19817D01*
X5395Y19803D01*
X5886D01*
X6377D01*
X6374Y19817D01*
X6322Y19895D01*
X6301Y19909D01*
X6337Y19963D01*
X6352Y20039D01*
X6337Y20116D01*
X6323Y20137D01*
X6359Y20173D01*
X6380Y20159D01*
X6457Y20144D01*
X6533Y20159D01*
X6579Y20189D01*
X6614Y20198D01*
X6650Y20189D01*
X6695Y20159D01*
X6772Y20144D01*
X6848Y20159D01*
X6894Y20189D01*
X6929Y20198D01*
X6965Y20189D01*
X7010Y20159D01*
X7087Y20144D01*
X7163Y20159D01*
X7208Y20189D01*
X7244Y20198D01*
X7280Y20189D01*
X7325Y20159D01*
X7402Y20144D01*
X7478Y20159D01*
X7506Y20177D01*
X7556Y20151D01*
Y20004D01*
X7500Y19948D01*
X7461Y19854D01*
Y19752D01*
X7500Y19658D01*
X7572Y19586D01*
X7666Y19547D01*
X7767D01*
X7861Y19586D01*
X7933Y19658D01*
X7972Y19752D01*
Y19854D01*
X7933Y19948D01*
X7877Y20004D01*
Y20151D01*
X7927Y20177D01*
X7955Y20159D01*
X8031Y20144D01*
X8108Y20159D01*
X8153Y20189D01*
X8189Y20198D01*
X8225Y20189D01*
X8270Y20159D01*
X8346Y20144D01*
X8423Y20159D01*
X8468Y20189D01*
X8504Y20198D01*
X8540Y20189D01*
X8585Y20159D01*
X8661Y20144D01*
X8738Y20159D01*
X8759Y20173D01*
X8795Y20137D01*
X8781Y20116D01*
X8766Y20039D01*
X8781Y19963D01*
X8811Y19918D01*
X8821Y19882D01*
X8811Y19846D01*
X8781Y19801D01*
X8766Y19724D01*
X8781Y19648D01*
X8811Y19603D01*
X8821Y19567D01*
X8811Y19531D01*
X8781Y19486D01*
X8766Y19409D01*
X8781Y19333D01*
X8811Y19288D01*
X8821Y19252D01*
X8811Y19216D01*
X8781Y19171D01*
X8766Y19094D01*
X8781Y19018D01*
X8811Y18973D01*
X8821Y18937D01*
X8811Y18901D01*
X8781Y18856D01*
X8766Y18780D01*
X8781Y18703D01*
X8811Y18658D01*
X8821Y18622D01*
X8811Y18586D01*
X8781Y18541D01*
X8766Y18465D01*
X8781Y18388D01*
X8811Y18343D01*
X8821Y18307D01*
X8811Y18271D01*
X8781Y18226D01*
X8766Y18150D01*
X8781Y18073D01*
X8811Y18028D01*
X8821Y17992D01*
X8811Y17957D01*
X8781Y17911D01*
X8766Y17835D01*
X8781Y17758D01*
X8795Y17737D01*
X8759Y17701D01*
X8738Y17715D01*
X8661Y17730D01*
X8585Y17715D01*
X8540Y17685D01*
X8504Y17676D01*
X8468Y17685D01*
X8423Y17715D01*
X8346Y17730D01*
X8270Y17715D01*
X8225Y17685D01*
X8189Y17676D01*
X8153Y17685D01*
X8108Y17715D01*
X8031Y17730D01*
X7955Y17715D01*
X7910Y17685D01*
X7874Y17676D01*
X7838Y17685D01*
X7793Y17715D01*
X7717Y17730D01*
X7640Y17715D01*
X7595Y17685D01*
X7559Y17676D01*
X7523Y17685D01*
X7478Y17715D01*
X7402Y17730D01*
X7325Y17715D01*
X7280Y17685D01*
X7244Y17676D01*
X7208Y17685D01*
X7163Y17715D01*
X7087Y17730D01*
X7010Y17715D01*
X6965Y17685D01*
X6929Y17676D01*
X6894Y17685D01*
X6848Y17715D01*
X6772Y17730D01*
X6695Y17715D01*
X6650Y17685D01*
X6614Y17676D01*
X6579Y17685D01*
X6533Y17715D01*
X6457Y17730D01*
X6380Y17715D01*
X6359Y17701D01*
X6323Y17737D01*
X6337Y17758D01*
X6352Y17835D01*
X6337Y17911D01*
X6307Y17957D01*
X6298Y17992D01*
X6307Y18028D01*
X6337Y18073D01*
X6352Y18150D01*
X6337Y18226D01*
X6294Y18292D01*
Y18323D01*
X6337Y18388D01*
X6352Y18465D01*
X6337Y18541D01*
X6307Y18586D01*
X6298Y18622D01*
X6307Y18658D01*
X6337Y18703D01*
X6352Y18780D01*
X6337Y18856D01*
X6307Y18901D01*
X6298Y18937D01*
X6307Y18973D01*
X6337Y19018D01*
X6352Y19094D01*
X6337Y19171D01*
X6294Y19236D01*
Y19268D01*
X6337Y19333D01*
X6352Y19409D01*
X6337Y19486D01*
X6301Y19540D01*
X6322Y19554D01*
X6374Y19632D01*
X6377Y19646D01*
X5886D01*
X5395D01*
X5398Y19632D01*
X5450Y19554D01*
X5471Y19540D01*
X5435Y19486D01*
X5419Y19409D01*
X5435Y19333D01*
X5478Y19268D01*
Y19236D01*
X5435Y19171D01*
X5419Y19094D01*
X5435Y19018D01*
X5465Y18973D01*
X5474Y18937D01*
X5465Y18901D01*
X5435Y18856D01*
X5419Y18780D01*
X5435Y18703D01*
X5465Y18658D01*
X5474Y18622D01*
X5465Y18586D01*
X5435Y18541D01*
X5419Y18465D01*
X5435Y18388D01*
X5478Y18323D01*
Y18292D01*
X5435Y18226D01*
X5419Y18150D01*
X5435Y18073D01*
X5453Y18045D01*
X5426Y17995D01*
X5109D01*
Y18248D01*
X5149D01*
Y18583D01*
X4724D01*
X4300D01*
Y18248D01*
X4339D01*
Y18113D01*
X4256D01*
X4200Y18170D01*
X4106Y18209D01*
X4004D01*
X3910Y18170D01*
X3838Y18098D01*
X3799Y18004D01*
Y17902D01*
X3838Y17808D01*
X3910Y17736D01*
X4004Y17697D01*
X4106D01*
X4200Y17736D01*
X4256Y17792D01*
X4339D01*
Y17578D01*
X5109D01*
Y17674D01*
X5506D01*
X5543Y17649D01*
X5620Y17634D01*
X6152D01*
X6228Y17649D01*
X6249Y17663D01*
X6285Y17627D01*
X6271Y17606D01*
X6256Y17530D01*
Y17424D01*
X5598D01*
X5598Y17424D01*
X5537Y17412D01*
X5485Y17377D01*
X5426Y17319D01*
X5407Y17330D01*
X5287Y17362D01*
X5162D01*
X5042Y17330D01*
X4934Y17268D01*
X4846Y17180D01*
X4784Y17072D01*
X4771Y17022D01*
X4719D01*
X4701Y17087D01*
X4634Y17204D01*
X4539Y17299D01*
X4422Y17367D01*
X4303Y17399D01*
Y16890D01*
Y16381D01*
X4422Y16413D01*
X4539Y16480D01*
X4634Y16576D01*
X4701Y16692D01*
X4719Y16758D01*
X4771D01*
X4784Y16707D01*
X4846Y16600D01*
X4934Y16512D01*
X5042Y16450D01*
X5162Y16417D01*
X5287D01*
X5407Y16450D01*
X5514Y16512D01*
X5602Y16600D01*
X5665Y16707D01*
X5697Y16828D01*
Y16952D01*
X5670Y17053D01*
X5694Y17095D01*
X5704Y17103D01*
X6256D01*
Y16998D01*
X6271Y16921D01*
X6308Y16866D01*
X6292Y16816D01*
X6181D01*
X6120Y16803D01*
X6068Y16769D01*
X6068Y16769D01*
X5575Y16276D01*
X5541Y16224D01*
X5528Y16163D01*
X5528Y16163D01*
Y15177D01*
X5528Y15177D01*
X5541Y15116D01*
X5575Y15064D01*
X5806Y14833D01*
X5806Y14833D01*
X5858Y14799D01*
X5919Y14786D01*
X6079D01*
X6130Y14752D01*
X6211Y14736D01*
X6596D01*
X6625Y14695D01*
X6588Y14658D01*
X6211D01*
X6130Y14642D01*
X6062Y14596D01*
X6016Y14527D01*
X6000Y14447D01*
X6016Y14366D01*
X6062Y14298D01*
X6130Y14252D01*
X6211Y14236D01*
X6604D01*
X6685Y14252D01*
X6753Y14298D01*
X6799Y14366D01*
X6811Y14426D01*
X8145Y15760D01*
X8145Y15760D01*
X8174Y15804D01*
X8210Y15811D01*
X8230Y15810D01*
X8258Y15769D01*
X8339Y15715D01*
X8403Y15702D01*
Y15651D01*
X8354Y15642D01*
X8286Y15596D01*
X8240Y15527D01*
X8224Y15447D01*
X8240Y15366D01*
X8286Y15298D01*
X8354Y15252D01*
X8435Y15236D01*
X8829D01*
X8909Y15252D01*
X8960Y15286D01*
X9880D01*
X10492Y14675D01*
Y14609D01*
X10450Y14585D01*
X10446Y14584D01*
X9970Y15060D01*
X9918Y15095D01*
X9856Y15107D01*
X9856Y15107D01*
X8960D01*
X8909Y15142D01*
X8829Y15158D01*
X8435D01*
X8354Y15142D01*
X8286Y15096D01*
X8240Y15028D01*
X8224Y14947D01*
X8240Y14866D01*
X8286Y14798D01*
X8354Y14752D01*
X8435Y14736D01*
X8829D01*
X8909Y14752D01*
X8960Y14786D01*
X9790D01*
X10453Y14123D01*
Y14044D01*
X10492Y13950D01*
X10564Y13878D01*
X10658Y13839D01*
X10760D01*
X10854Y13878D01*
X10926Y13950D01*
X10965Y14044D01*
Y14145D01*
X10926Y14239D01*
X10854Y14311D01*
X10785Y14340D01*
X10795Y14390D01*
X10799D01*
X10893Y14429D01*
X10965Y14501D01*
X11004Y14595D01*
Y14697D01*
X10965Y14791D01*
X10893Y14863D01*
X10799Y14902D01*
X10719D01*
X10060Y15560D01*
X10008Y15595D01*
X9947Y15607D01*
X9947Y15607D01*
X8960D01*
X8909Y15642D01*
X8860Y15651D01*
Y15702D01*
X8925Y15715D01*
X9006Y15769D01*
X9061Y15851D01*
X9064Y15868D01*
X8632D01*
Y15947D01*
X8553D01*
Y16198D01*
X8435D01*
X8339Y16179D01*
X8258Y16124D01*
X8242Y16101D01*
X8192Y16116D01*
Y16676D01*
X8242Y16691D01*
X8248Y16682D01*
X8587Y16343D01*
X8587Y16343D01*
X8639Y16308D01*
X8701Y16296D01*
X8701Y16296D01*
X9372D01*
X9460Y16209D01*
X9459Y16204D01*
X9456Y16200D01*
X9447Y16178D01*
X9447Y16173D01*
X9444Y16168D01*
X9438Y16145D01*
X9439Y16140D01*
X9436Y16136D01*
X9433Y16112D01*
X9434Y16107D01*
X9432Y16102D01*
X9431Y16078D01*
X9433Y16073D01*
X9432Y16068D01*
X9433Y16056D01*
X9446Y16031D01*
X9457Y16005D01*
X9462Y16003D01*
X9464Y15999D01*
X9484Y15993D01*
X9517Y15964D01*
X9517Y15972D01*
X9518Y15982D01*
X9518D01*
X9518Y15982D01*
Y15982D01*
X9911D01*
X9912Y15972D01*
X9912Y15955D01*
X9936D01*
X9962Y15998D01*
X9965Y15999D01*
X9967Y16003D01*
X9972Y16005D01*
X9983Y16031D01*
X9996Y16056D01*
X9997Y16068D01*
X9996Y16073D01*
X9998Y16078D01*
X9997Y16102D01*
X9995Y16107D01*
X9997Y16112D01*
X9993Y16136D01*
X9991Y16140D01*
X9991Y16145D01*
X9985Y16168D01*
X9982Y16173D01*
X9982Y16178D01*
X9973Y16200D01*
X9970Y16204D01*
X9969Y16209D01*
X9961Y16225D01*
X9973Y16247D01*
X9985Y16260D01*
X9994Y16266D01*
X10039Y16257D01*
X10711D01*
X10759Y16209D01*
X10759Y16204D01*
X10755Y16200D01*
X10746Y16178D01*
X10746Y16173D01*
X10743Y16168D01*
X10737Y16145D01*
X10738Y16140D01*
X10735Y16136D01*
X10732Y16112D01*
X10733Y16107D01*
X10731Y16102D01*
X10731Y16078D01*
X10732Y16073D01*
X10731Y16068D01*
X10732Y16056D01*
X10746Y16031D01*
X10757Y16005D01*
X10761Y16003D01*
X10763Y15999D01*
X10784Y15993D01*
X10816Y15964D01*
X10816Y15972D01*
X10817Y15982D01*
X10817D01*
X10817Y15982D01*
Y15982D01*
X11211D01*
X11212Y15972D01*
X11212Y15955D01*
X11235D01*
X11262Y15998D01*
X11265Y15999D01*
X11267Y16003D01*
X11271Y16005D01*
X11282Y16031D01*
X11295Y16056D01*
X11297Y16068D01*
X11295Y16073D01*
X11297Y16078D01*
X11297Y16102D01*
X11294Y16107D01*
X11296Y16112D01*
X11293Y16136D01*
X11290Y16140D01*
X11291Y16145D01*
X11285Y16168D01*
X11281Y16173D01*
X11281Y16178D01*
X11273Y16200D01*
X11269Y16204D01*
X11268Y16209D01*
X11257Y16230D01*
X11253Y16233D01*
X11252Y16239D01*
X11238Y16258D01*
X11234Y16261D01*
X11232Y16266D01*
X11216Y16283D01*
X11211Y16286D01*
X11209Y16291D01*
X11191Y16306D01*
X11186Y16308D01*
X11183Y16312D01*
X11163Y16326D01*
X11158Y16327D01*
X11154Y16331D01*
X11133Y16342D01*
X11128Y16342D01*
X11124Y16346D01*
X11102Y16354D01*
X11097Y16354D01*
X11092Y16357D01*
X11069Y16363D01*
X11064Y16362D01*
X11059Y16365D01*
X11057Y16365D01*
X10891Y16531D01*
X10839Y16566D01*
X10778Y16578D01*
X10778Y16578D01*
X10106D01*
X9903Y16781D01*
X9920Y16831D01*
X10014Y16870D01*
X10071Y16926D01*
X16890D01*
X16890Y16926D01*
X16951Y16938D01*
X17003Y16973D01*
X18460Y18430D01*
X18460Y18430D01*
X18495Y18482D01*
X18507Y18543D01*
X18507Y18543D01*
Y19051D01*
X18563Y19107D01*
X18602Y19201D01*
Y19303D01*
X18563Y19397D01*
X18491Y19469D01*
X18397Y19508D01*
X18296D01*
X18202Y19469D01*
X18130Y19397D01*
X18091Y19303D01*
Y19201D01*
X18130Y19107D01*
X18186Y19051D01*
Y18610D01*
X18022Y18446D01*
X17972Y18467D01*
Y18515D01*
X17933Y18610D01*
X17861Y18682D01*
X17767Y18720D01*
X17666D01*
X17572Y18682D01*
X17500Y18610D01*
X17461Y18515D01*
Y18436D01*
X16607Y17582D01*
X15827D01*
X15808Y17628D01*
X16231Y18051D01*
X16311D01*
X16405Y18090D01*
X16477Y18162D01*
X16516Y18256D01*
Y18266D01*
X16514Y18268D01*
X16516Y18273D01*
Y18341D01*
X16503Y18390D01*
X16490Y18421D01*
X16465Y18464D01*
X16417Y18512D01*
X16373Y18537D01*
X16342Y18550D01*
X16294Y18563D01*
X16226D01*
X16177Y18550D01*
X16146Y18537D01*
X16103Y18512D01*
X16055Y18464D01*
X16030Y18421D01*
X16017Y18390D01*
X16004Y18341D01*
Y18278D01*
X15954Y18228D01*
X15544Y17818D01*
X14269D01*
X14241Y17868D01*
X14272Y17941D01*
Y18043D01*
X14233Y18137D01*
X14161Y18209D01*
X14067Y18248D01*
X13965D01*
X13871Y18209D01*
X13814Y18153D01*
X10282D01*
X10099Y18337D01*
X10118Y18383D01*
X13562D01*
X13562Y18383D01*
X13570Y18384D01*
X13576D01*
X13595Y18366D01*
X13689Y18327D01*
X13791D01*
X13885Y18366D01*
X13957Y18438D01*
X13996Y18532D01*
Y18634D01*
X13957Y18728D01*
X13885Y18800D01*
X13791Y18839D01*
X13689D01*
X13595Y18800D01*
X13523Y18728D01*
X13513Y18704D01*
X10065D01*
X9876Y18893D01*
X9829Y18924D01*
X9822Y18957D01*
X9820Y18972D01*
X9822Y18979D01*
X9846Y18996D01*
X10389Y19539D01*
X10389Y19539D01*
X10424Y19591D01*
X10436Y19652D01*
Y20733D01*
X10920Y21217D01*
X13539D01*
X13595Y21161D01*
X13689Y21122D01*
X13791D01*
X13885Y21161D01*
X13957Y21233D01*
X13996Y21327D01*
Y21429D01*
X13957Y21523D01*
X13885Y21595D01*
X13791Y21634D01*
X13689D01*
X13595Y21595D01*
X13539Y21539D01*
X10854D01*
X10854Y21539D01*
X10792Y21526D01*
X10740Y21491D01*
X10740Y21491D01*
X10246Y20997D01*
X10200Y21016D01*
Y21193D01*
X10738Y21731D01*
X13775D01*
X13831Y21675D01*
X13925Y21636D01*
X14027D01*
X14121Y21675D01*
X14193Y21747D01*
X14232Y21841D01*
Y21943D01*
X14193Y22037D01*
X14121Y22109D01*
X14113Y22112D01*
X14123Y22162D01*
X15682D01*
X16004Y21840D01*
Y21811D01*
Y21777D01*
X16017Y21729D01*
X16030Y21698D01*
X16055Y21654D01*
X16103Y21606D01*
X16146Y21581D01*
X16177Y21568D01*
X16226Y21555D01*
X16294D01*
X16342Y21568D01*
X16373Y21581D01*
X16417Y21606D01*
X16465Y21654D01*
X16490Y21698D01*
X16503Y21729D01*
X16516Y21777D01*
Y21862D01*
X16477Y21956D01*
X16405Y22028D01*
X16311Y22067D01*
X16231D01*
X15946Y22352D01*
X15965Y22398D01*
X16705D01*
X17461Y21643D01*
Y21563D01*
X17500Y21469D01*
X17572Y21397D01*
X17666Y21358D01*
X17767D01*
X17861Y21397D01*
X17933Y21469D01*
X17972Y21563D01*
Y21665D01*
X17933Y21759D01*
X17861Y21831D01*
X17767Y21870D01*
X17688D01*
X16885Y22673D01*
X16833Y22707D01*
X16772Y22720D01*
X16772Y22720D01*
X13150D01*
X13150Y22720D01*
X13089Y22707D01*
X13037Y22673D01*
X13037Y22673D01*
X12966Y22601D01*
X10869D01*
X10848Y22651D01*
X10886Y22690D01*
X10925Y22784D01*
Y22886D01*
X10886Y22980D01*
X10814Y23052D01*
X10720Y23091D01*
X10640D01*
X10310Y23421D01*
X10258Y23455D01*
X10197Y23468D01*
X10197Y23468D01*
X7941D01*
X6275Y25133D01*
X6223Y25168D01*
X6161Y25180D01*
X6161Y25180D01*
X5399D01*
X5373Y25243D01*
X5262Y25353D01*
X5118Y25413D01*
D02*
G37*
G36*
X4666Y22646D02*
X4509D01*
X4355Y22615D01*
X4225Y22528D01*
X4138Y22398D01*
X4107Y22244D01*
X4138Y22090D01*
X4225Y21960D01*
X4349Y21877D01*
X4352Y21850D01*
X4349Y21823D01*
X4225Y21741D01*
X4138Y21610D01*
X4107Y21457D01*
X4138Y21303D01*
X4225Y21173D01*
X4349Y21090D01*
X4352Y21063D01*
X4349Y21036D01*
X4225Y20953D01*
X4138Y20823D01*
X4107Y20669D01*
X4138Y20516D01*
X4225Y20385D01*
X4316Y20325D01*
X4310Y20268D01*
X4290Y20260D01*
X4200Y20191D01*
X4130Y20100D01*
X4087Y19995D01*
X4082Y19961D01*
X4587D01*
X5093D01*
X5088Y19995D01*
X5044Y20100D01*
X4975Y20191D01*
X4885Y20260D01*
X4865Y20268D01*
X4859Y20325D01*
X4950Y20385D01*
X5037Y20516D01*
X5068Y20669D01*
X5037Y20823D01*
X4950Y20953D01*
X4826Y21036D01*
X4823Y21063D01*
X4826Y21090D01*
X4950Y21173D01*
X5037Y21303D01*
X5068Y21457D01*
X5037Y21610D01*
X4950Y21741D01*
X4826Y21823D01*
X4823Y21850D01*
X4826Y21877D01*
X4950Y21960D01*
X5037Y22090D01*
X5068Y22244D01*
X5037Y22398D01*
X4950Y22528D01*
X4820Y22615D01*
X4666Y22646D01*
D02*
G37*
G36*
X5093Y19803D02*
X4666D01*
Y19445D01*
X4779Y19460D01*
X4885Y19504D01*
X4975Y19573D01*
X5044Y19663D01*
X5088Y19769D01*
X5093Y19803D01*
D02*
G37*
G36*
X4509D02*
X4082D01*
X4087Y19769D01*
X4130Y19663D01*
X4200Y19573D01*
X4290Y19504D01*
X4396Y19460D01*
X4509Y19445D01*
X4509D01*
Y19803D01*
D02*
G37*
G36*
X20720Y19547D02*
X20618D01*
X20524Y19508D01*
X20452Y19436D01*
X20442Y19412D01*
X20393Y19402D01*
X20341Y19367D01*
X20341Y19367D01*
X19675Y18701D01*
X19595D01*
X19501Y18662D01*
X19429Y18590D01*
X19390Y18496D01*
Y18394D01*
X19429Y18300D01*
X19501Y18228D01*
X19595Y18189D01*
X19697D01*
X19791Y18228D01*
X19863Y18300D01*
X19902Y18394D01*
Y18474D01*
X20513Y19085D01*
X20524Y19074D01*
X20618Y19035D01*
X20720D01*
X20814Y19074D01*
X20886Y19146D01*
X20925Y19240D01*
Y19342D01*
X20886Y19436D01*
X20814Y19508D01*
X20720Y19547D01*
D02*
G37*
G36*
X5149Y19075D02*
X4803D01*
Y18740D01*
X5149D01*
Y19075D01*
D02*
G37*
G36*
X4646D02*
X4300D01*
Y18740D01*
X4646D01*
Y19075D01*
D02*
G37*
G36*
X4146Y17399D02*
X4027Y17367D01*
X3910Y17299D01*
X3815Y17204D01*
X3747Y17087D01*
X3716Y16968D01*
X4146D01*
Y17399D01*
D02*
G37*
G36*
Y16811D02*
X3716D01*
X3747Y16692D01*
X3815Y16576D01*
X3910Y16480D01*
X4027Y16413D01*
X4146Y16381D01*
Y16811D01*
D02*
G37*
G36*
X8829Y16198D02*
X8711D01*
Y16026D01*
X9064D01*
X9061Y16043D01*
X9006Y16124D01*
X8925Y16179D01*
X8829Y16198D01*
D02*
G37*
G36*
X11225Y15797D02*
X11122D01*
X11121Y15797D01*
X11103Y15786D01*
X11102Y15786D01*
Y15674D01*
X11146Y15692D01*
X11207Y15753D01*
X11225Y15797D01*
D02*
G37*
G36*
X9926D02*
X9823D01*
X9822Y15797D01*
X9804Y15786D01*
X9803Y15786D01*
Y15674D01*
X9847Y15692D01*
X9908Y15753D01*
X9926Y15797D01*
D02*
G37*
G36*
X10906D02*
X10822D01*
X10840Y15753D01*
X10901Y15692D01*
X10945Y15674D01*
Y15778D01*
X10943Y15778D01*
X10924Y15786D01*
X10906Y15797D01*
X10906Y15797D01*
D02*
G37*
G36*
X9606D02*
X9523D01*
X9541Y15753D01*
X9602Y15692D01*
X9646Y15674D01*
Y15778D01*
X9644Y15778D01*
X9625Y15786D01*
X9607Y15797D01*
X9606Y15797D01*
D02*
G37*
G36*
X17937Y15866D02*
X17811D01*
X17696Y15818D01*
X17607Y15730D01*
X17559Y15614D01*
Y15563D01*
X17351Y15354D01*
X17300D01*
X17184Y15306D01*
X17148Y15270D01*
X16988D01*
Y15512D01*
X14744D01*
Y14811D01*
X13795Y13862D01*
X13752Y13797D01*
X13736Y13720D01*
Y12466D01*
X13736Y12466D01*
X13637Y12366D01*
X13583Y12236D01*
Y12095D01*
X13637Y11965D01*
X13736Y11865D01*
X13867Y11811D01*
X14007D01*
X14138Y11865D01*
X14237Y11965D01*
X14291Y12095D01*
Y12236D01*
X14237Y12366D01*
X14138Y12466D01*
X14138Y12466D01*
Y13637D01*
X15067Y14567D01*
X16988D01*
Y14809D01*
X17148D01*
X17184Y14772D01*
X17300Y14724D01*
X17425D01*
X17541Y14772D01*
X17629Y14861D01*
X17677Y14977D01*
Y15028D01*
X17885Y15236D01*
X17937D01*
X18052Y15284D01*
X18141Y15373D01*
X18189Y15489D01*
Y15614D01*
X18141Y15730D01*
X18052Y15818D01*
X17937Y15866D01*
D02*
G37*
G36*
X13077Y16772D02*
X12829D01*
X12585Y16723D01*
X12356Y16628D01*
X12150Y16490D01*
X11974Y16315D01*
X11836Y16109D01*
X11741Y15879D01*
X11693Y15636D01*
Y15388D01*
X11741Y15144D01*
X11836Y14915D01*
X11974Y14709D01*
X12150Y14533D01*
X12356Y14395D01*
X12585Y14300D01*
X12829Y14252D01*
X13077D01*
X13320Y14300D01*
X13550Y14395D01*
X13756Y14533D01*
X13931Y14709D01*
X14069Y14915D01*
X14164Y15144D01*
X14213Y15388D01*
Y15636D01*
X14164Y15879D01*
X14069Y16109D01*
X13931Y16315D01*
X13756Y16490D01*
X13550Y16628D01*
X13320Y16723D01*
X13077Y16772D01*
D02*
G37*
G36*
X8829Y14658D02*
X8435D01*
X8354Y14642D01*
X8286Y14596D01*
X8240Y14527D01*
X8224Y14447D01*
X8240Y14366D01*
X8286Y14298D01*
X8354Y14252D01*
X8435Y14236D01*
X8471D01*
Y13928D01*
X8326D01*
Y13968D01*
X7992D01*
Y13543D01*
Y13119D01*
X8326D01*
Y13158D01*
X8996D01*
Y13383D01*
X9247D01*
X9304Y13326D01*
X9398Y13287D01*
X9500D01*
X9594Y13326D01*
X9666Y13398D01*
X9705Y13492D01*
Y13594D01*
X9666Y13688D01*
X9594Y13760D01*
X9500Y13799D01*
X9398D01*
X9304Y13760D01*
X9247Y13704D01*
X8996D01*
Y13928D01*
X8792D01*
Y14236D01*
X8829D01*
X8909Y14252D01*
X8978Y14298D01*
X9023Y14366D01*
X9039Y14447D01*
X9023Y14527D01*
X8978Y14596D01*
X8909Y14642D01*
X8829Y14658D01*
D02*
G37*
G36*
X7834Y13968D02*
X7500D01*
Y13622D01*
X7834D01*
Y13968D01*
D02*
G37*
G36*
X18199Y13929D02*
Y13539D01*
X18588D01*
X18560Y13643D01*
X18498Y13751D01*
X18410Y13839D01*
X18302Y13901D01*
X18199Y13929D01*
D02*
G37*
G36*
X21199Y13929D02*
Y13539D01*
X21588D01*
X21560Y13643D01*
X21498Y13751D01*
X21410Y13839D01*
X21302Y13901D01*
X21199Y13929D01*
D02*
G37*
G36*
X21041D02*
X20938Y13901D01*
X20830Y13839D01*
X20742Y13751D01*
X20680Y13643D01*
X20652Y13539D01*
X21041D01*
Y13929D01*
D02*
G37*
G36*
X20199D02*
Y13539D01*
X20588D01*
X20560Y13643D01*
X20498Y13751D01*
X20410Y13839D01*
X20302Y13901D01*
X20199Y13929D01*
D02*
G37*
G36*
X20041D02*
X19938Y13901D01*
X19830Y13839D01*
X19742Y13751D01*
X19680Y13643D01*
X19652Y13539D01*
X20041D01*
Y13929D01*
D02*
G37*
G36*
X18041D02*
X17938Y13901D01*
X17830Y13839D01*
X17742Y13751D01*
X17680Y13643D01*
X17652Y13539D01*
X18041D01*
Y13929D01*
D02*
G37*
G36*
X7834Y13465D02*
X7500D01*
Y13119D01*
X7834D01*
Y13465D01*
D02*
G37*
G36*
X19177Y13894D02*
X19063D01*
X18953Y13864D01*
X18854Y13807D01*
X18774Y13727D01*
X18717Y13628D01*
X18687Y13518D01*
Y13404D01*
X18717Y13293D01*
X18774Y13195D01*
X18854Y13114D01*
X18953Y13057D01*
X19063Y13028D01*
X19177D01*
X19287Y13057D01*
X19386Y13114D01*
X19467Y13195D01*
X19524Y13293D01*
X19553Y13404D01*
Y13518D01*
X19524Y13628D01*
X19467Y13727D01*
X19386Y13807D01*
X19287Y13864D01*
X19177Y13894D01*
D02*
G37*
G36*
X18588Y13382D02*
X18199D01*
Y12993D01*
X18302Y13020D01*
X18410Y13083D01*
X18498Y13171D01*
X18560Y13278D01*
X18588Y13382D01*
D02*
G37*
G36*
X21588D02*
X21199D01*
Y12993D01*
X21302Y13020D01*
X21410Y13083D01*
X21498Y13171D01*
X21560Y13278D01*
X21588Y13382D01*
D02*
G37*
G36*
X21041D02*
X20652D01*
X20680Y13278D01*
X20742Y13171D01*
X20830Y13083D01*
X20938Y13020D01*
X21041Y12993D01*
Y13382D01*
D02*
G37*
G36*
X20588D02*
X20199D01*
Y12993D01*
X20302Y13020D01*
X20410Y13083D01*
X20498Y13171D01*
X20560Y13278D01*
X20588Y13382D01*
D02*
G37*
G36*
X20041D02*
X19652D01*
X19680Y13278D01*
X19742Y13171D01*
X19830Y13083D01*
X19938Y13020D01*
X20041Y12993D01*
Y13382D01*
D02*
G37*
G36*
X18041D02*
X17652D01*
X17680Y13278D01*
X17742Y13171D01*
X17830Y13083D01*
X17938Y13020D01*
X18041Y12993D01*
Y13382D01*
D02*
G37*
G36*
X6094Y13091D02*
X5324D01*
Y12873D01*
X5119D01*
X5062Y12930D01*
X4968Y12968D01*
X4866D01*
X4772Y12930D01*
X4700Y12858D01*
X4661Y12764D01*
Y12662D01*
X4700Y12568D01*
X4772Y12496D01*
X4866Y12457D01*
X4968D01*
X5062Y12496D01*
X5119Y12552D01*
X5324D01*
Y12421D01*
X5284D01*
Y12086D01*
X5709D01*
X6133D01*
Y12421D01*
X6094D01*
Y13091D01*
D02*
G37*
G36*
X16988Y12913D02*
X14744D01*
Y11968D01*
X16988D01*
Y12220D01*
X17259D01*
X17274Y12195D01*
X17354Y12114D01*
X17453Y12057D01*
X17563Y12028D01*
X17677D01*
X17787Y12057D01*
X17886Y12114D01*
X17967Y12195D01*
X17987Y12230D01*
X18253D01*
X18274Y12195D01*
X18354Y12114D01*
X18453Y12057D01*
X18563Y12028D01*
X18677D01*
X18685Y12030D01*
X19038Y11677D01*
X19112Y11627D01*
X19201Y11610D01*
X20039D01*
X20128Y11627D01*
X20203Y11677D01*
X20555Y12030D01*
X20563Y12028D01*
X20677D01*
X20787Y12057D01*
X20886Y12114D01*
X20967Y12195D01*
X21024Y12293D01*
X21053Y12404D01*
Y12518D01*
X21024Y12628D01*
X20967Y12727D01*
X20886Y12807D01*
X20787Y12864D01*
X20677Y12894D01*
X20563D01*
X20453Y12864D01*
X20354Y12807D01*
X20274Y12727D01*
X20217Y12628D01*
X20187Y12518D01*
Y12404D01*
X20206Y12333D01*
X19952Y12080D01*
X19923Y12084D01*
X19908Y12137D01*
X19967Y12195D01*
X20024Y12293D01*
X20053Y12404D01*
Y12518D01*
X20024Y12628D01*
X19967Y12727D01*
X19886Y12807D01*
X19787Y12864D01*
X19677Y12894D01*
X19563D01*
X19453Y12864D01*
X19354Y12807D01*
X19274Y12727D01*
X19217Y12628D01*
X19187Y12518D01*
Y12404D01*
X19217Y12293D01*
X19274Y12195D01*
X19332Y12137D01*
X19317Y12084D01*
X19288Y12080D01*
X19034Y12333D01*
X19053Y12404D01*
Y12518D01*
X19024Y12628D01*
X18967Y12727D01*
X18886Y12807D01*
X18787Y12864D01*
X18677Y12894D01*
X18563D01*
X18453Y12864D01*
X18354Y12807D01*
X18274Y12727D01*
X18253Y12691D01*
X17987D01*
X17967Y12727D01*
X17886Y12807D01*
X17787Y12864D01*
X17677Y12894D01*
X17563D01*
X17453Y12864D01*
X17354Y12807D01*
X17274Y12727D01*
X17248Y12682D01*
X16988D01*
Y12913D01*
D02*
G37*
G36*
X6133Y11929D02*
X5787D01*
Y11594D01*
X6133D01*
Y11929D01*
D02*
G37*
G36*
X5630D02*
X5284D01*
Y11594D01*
X5630D01*
Y11929D01*
D02*
G37*
G36*
X19796Y10257D02*
X19460D01*
Y9980D01*
X19796D01*
Y10257D01*
D02*
G37*
G36*
X19302D02*
X18966D01*
Y9980D01*
X19302D01*
Y10257D01*
D02*
G37*
G36*
X19796Y9822D02*
X19460D01*
Y9546D01*
X19796D01*
Y9822D01*
D02*
G37*
G36*
X19302D02*
X18966D01*
Y9546D01*
X19302D01*
Y9822D01*
D02*
G37*
G36*
X21716Y10689D02*
X21524D01*
X21339Y10639D01*
X21173Y10543D01*
X21037Y10408D01*
X20941Y10242D01*
X20892Y10057D01*
Y9865D01*
X20941Y9679D01*
X21037Y9513D01*
X21173Y9378D01*
X21339Y9282D01*
X21524Y9232D01*
X21716D01*
X21901Y9282D01*
X22067Y9378D01*
X22203Y9513D01*
X22299Y9679D01*
X22348Y9865D01*
Y10057D01*
X22299Y10242D01*
X22203Y10408D01*
X22067Y10543D01*
X21901Y10639D01*
X21716Y10689D01*
D02*
G37*
G36*
X17216D02*
X17024D01*
X16839Y10639D01*
X16673Y10543D01*
X16537Y10408D01*
X16441Y10242D01*
X16392Y10057D01*
Y9865D01*
X16441Y9679D01*
X16537Y9513D01*
X16673Y9378D01*
X16839Y9282D01*
X17024Y9232D01*
X17216D01*
X17401Y9282D01*
X17567Y9378D01*
X17703Y9513D01*
X17799Y9679D01*
X17848Y9865D01*
Y10057D01*
X17799Y10242D01*
X17703Y10408D01*
X17567Y10543D01*
X17401Y10639D01*
X17216Y10689D01*
D02*
G37*
%LPD*%
G36*
X11026Y16283D02*
X11049Y16280D01*
X11072Y16274D01*
X11094Y16266D01*
X11115Y16255D01*
X11135Y16242D01*
X11153Y16226D01*
X11168Y16209D01*
X11182Y16189D01*
X11193Y16169D01*
X11202Y16147D01*
X11208Y16124D01*
X11211Y16100D01*
X11212Y16077D01*
X11211Y16065D01*
X10817D01*
X10816Y16077D01*
X10816Y16100D01*
X10819Y16124D01*
X10825Y16147D01*
X10834Y16169D01*
X10845Y16189D01*
X10859Y16209D01*
X10875Y16226D01*
X10893Y16242D01*
X10912Y16255D01*
X10933Y16266D01*
X10955Y16274D01*
X10978Y16280D01*
X11002Y16283D01*
X11026Y16283D01*
D02*
G37*
G36*
X9726D02*
X9750Y16280D01*
X9773Y16274D01*
X9795Y16266D01*
X9816Y16255D01*
X9836Y16242D01*
X9853Y16226D01*
X9869Y16209D01*
X9883Y16189D01*
X9894Y16169D01*
X9903Y16147D01*
X9909Y16124D01*
X9912Y16100D01*
X9913Y16077D01*
X9911Y16065D01*
X9518D01*
X9517Y16077D01*
X9517Y16100D01*
X9520Y16124D01*
X9526Y16147D01*
X9535Y16169D01*
X9546Y16189D01*
X9560Y16209D01*
X9576Y16226D01*
X9594Y16242D01*
X9613Y16255D01*
X9634Y16266D01*
X9656Y16274D01*
X9679Y16280D01*
X9703Y16283D01*
X9726Y16283D01*
D02*
G37*
D10*
X19547Y10709D02*
X20751D01*
X19528Y10729D02*
X19547Y10709D01*
X21222Y11181D02*
X22480D01*
X20751Y10709D02*
X21222Y11181D01*
X18148Y10709D02*
X19508D01*
X19528Y10729D01*
X17696Y11161D02*
X18148Y10709D01*
X16281Y11161D02*
X17696D01*
D12*
X15256Y15039D02*
X15866D01*
X13937Y13720D02*
X15256Y15039D01*
X13937Y12165D02*
Y13720D01*
D34*
X17620Y12461D02*
D03*
X18120Y13461D02*
D03*
X18620Y12461D02*
D03*
X19120Y13461D02*
D03*
X19620Y12461D02*
D03*
X20120Y13461D02*
D03*
X20620Y12461D02*
D03*
X21120Y13461D02*
D03*
D36*
X13937Y12165D02*
D03*
D37*
X5039Y25020D02*
D03*
X6024Y24035D02*
D03*
X4055D02*
D03*
D38*
X8622Y13543D02*
D03*
X7913D02*
D03*
D41*
X19381Y10729D02*
D03*
Y9901D02*
D03*
X8425Y21712D02*
D03*
Y22540D02*
D03*
D44*
X5709Y12717D02*
D03*
X5866Y22126D02*
D03*
Y21417D02*
D03*
X7008Y22520D02*
D03*
Y21811D02*
D03*
X4724Y17952D02*
D03*
Y18662D02*
D03*
X5709Y12008D02*
D03*
D51*
X18543Y17520D02*
X19252D01*
X18533Y22785D02*
X19163D01*
X18524Y22776D02*
X18533Y22785D01*
X19163D02*
X19173Y22795D01*
X19252Y17520D02*
X19685D01*
X21929Y19764D01*
X22047D01*
X19173Y22795D02*
X21417Y20551D01*
X22047D01*
X15866Y15039D02*
X17362D01*
Y15039D01*
X17874Y15551D01*
X17874D01*
X15866Y12441D02*
X15945D01*
X17610Y12451D02*
X17620Y12461D01*
X15955Y12451D02*
X17610D01*
X15945Y12441D02*
X15955Y12451D01*
X17620Y12461D02*
X18581D01*
X18620Y12421D01*
Y12461D01*
X20620Y12421D02*
Y12461D01*
X20039Y11841D02*
X20620Y12421D01*
X19201Y11841D02*
X20039D01*
X18620Y12421D02*
X19201Y11841D01*
D52*
X15610Y17657D02*
X16260Y18307D01*
X10217Y17657D02*
X15610D01*
X9870Y17087D02*
X16890D01*
X18346Y18543D01*
X16673Y17421D02*
X17717Y18465D01*
X9911Y17421D02*
X16673D01*
X18346Y18543D02*
Y19252D01*
X9232Y17835D02*
X9258Y17809D01*
X9524D02*
X9911Y17421D01*
X9258Y17809D02*
X9524D01*
X7874Y23307D02*
X10197D01*
X10669Y22835D01*
X19646Y18445D02*
X20454Y19254D01*
X20632D02*
X20669Y19291D01*
X19646Y18445D02*
Y18445D01*
X20454Y19254D02*
X20632D01*
X6161Y25020D02*
X7874Y23307D01*
X5039Y25020D02*
X6161D01*
X5827Y20076D02*
Y21378D01*
Y20076D02*
X5863Y20039D01*
X5827Y21378D02*
X5866Y21417D01*
X5863Y20039D02*
X5886D01*
X10039Y16417D02*
X10778D01*
X11024Y16171D01*
X8676Y16880D02*
Y17249D01*
Y16880D02*
X8864Y16693D01*
X9764D01*
X10039Y16417D01*
X8661Y17264D02*
X8676Y17249D01*
X8362Y16796D02*
X8701Y16457D01*
X9439D02*
X9724Y16171D01*
X8701Y16457D02*
X9439D01*
X8362Y16796D02*
Y17249D01*
X8346Y17264D02*
X8362Y17249D01*
X9724Y18150D02*
X10217Y17657D01*
X8632Y13553D02*
Y14447D01*
Y14947D02*
X9856D01*
X10709Y14094D01*
X5919Y14947D02*
X6407D01*
X6181Y16655D02*
X6931D01*
X5689Y15177D02*
Y16163D01*
X6931Y16655D02*
X7087Y16811D01*
X5689Y15177D02*
X5919Y14947D01*
X5689Y16163D02*
X6181Y16655D01*
X7087Y16811D02*
Y17264D01*
X6407Y15947D02*
X7114D01*
X7717Y16550D01*
Y17264D01*
X6407Y14447D02*
X6604D01*
X8031Y15874D02*
Y17264D01*
X6604Y14447D02*
X8031Y15874D01*
X8632Y15447D02*
X9947D01*
X10748Y14646D01*
X7402Y16569D02*
Y17264D01*
X6401Y15454D02*
X6407Y15447D01*
X6017Y15454D02*
X6401D01*
X5925Y15546D02*
X6017Y15454D01*
X5925Y15546D02*
Y16065D01*
X6157Y16297D01*
X7130D01*
X7402Y16569D01*
X8622Y13543D02*
X8632Y13553D01*
X19415Y20039D02*
X19455Y20000D01*
X20315D01*
X18609Y20039D02*
X19415D01*
X8406Y22559D02*
X8425Y22540D01*
X8385Y22559D02*
X8406D01*
X7795D02*
X8385D01*
X6654Y21181D02*
X7835D01*
X8366Y21712D01*
X8425D01*
X6472Y20999D02*
X6654Y21181D01*
X6472Y20625D02*
Y20999D01*
X6457Y20610D02*
X6472Y20625D01*
X18369Y19800D02*
X18609Y20039D01*
X13150Y22559D02*
X16772D01*
X13032Y22441D02*
X13150Y22559D01*
X10472Y22441D02*
X13032D01*
X9289Y21258D02*
X10472Y22441D01*
X13248Y22323D02*
X15748D01*
X13130Y22205D02*
X13248Y22323D01*
X10630Y22205D02*
X13130D01*
X9803Y21378D02*
X10630Y22205D01*
X10854Y21378D02*
X13740D01*
X10276Y20800D02*
X10854Y21378D01*
X10671Y21892D02*
X13976D01*
X10039Y19750D02*
Y21260D01*
X10671Y21892D01*
X9803Y19882D02*
Y21378D01*
X9289Y20076D02*
Y21258D01*
X9232Y19094D02*
X9247Y19110D01*
X9733D01*
X10276Y19652D01*
Y20800D01*
X9699Y19409D02*
X10039Y19750D01*
X9661Y19739D02*
X9803Y19882D01*
X4055Y17953D02*
X4724D01*
X4724Y17952D01*
X4842Y17835D01*
X5886D01*
X5224Y16890D02*
X5598Y17264D01*
X6457D01*
X5866Y21417D02*
X6299D01*
X6693Y21811D01*
X7008D01*
X7008Y21811D01*
X7717Y19803D02*
Y20610D01*
X7717Y19803D02*
X7717Y19803D01*
X9232Y19409D02*
X9699D01*
X9232Y19724D02*
X9247Y19739D01*
X9661D01*
X16772Y22559D02*
X17717Y21614D01*
X9232Y20039D02*
X9253D01*
X9289Y20076D01*
X9999Y18543D02*
X13562D01*
X9763Y18780D02*
X9999Y18543D01*
X9232Y18780D02*
X9763D01*
X13563Y18545D02*
X13702D01*
X13740Y18583D01*
X13562Y18543D02*
X13563Y18545D01*
X9744Y18465D02*
X10216Y17992D01*
X9232Y18465D02*
X9744D01*
X10216Y17992D02*
X14016D01*
X9232Y18150D02*
X9724D01*
X15748Y22323D02*
X16260Y21811D01*
X8622Y13543D02*
X9449D01*
X16244Y19800D02*
X18369D01*
X5704Y12713D02*
X5709Y12717D01*
X4917Y12713D02*
X5704D01*
D53*
X22047Y18976D02*
D03*
Y19764D02*
D03*
Y20551D02*
D03*
Y21339D02*
D03*
X4587Y22244D02*
D03*
Y21457D02*
D03*
Y20669D02*
D03*
Y19882D02*
D03*
D54*
X4224Y16890D02*
D03*
X5224D02*
D03*
D55*
X12953Y15512D02*
D03*
X15669Y24803D02*
D03*
X8583D02*
D03*
D56*
X17120Y9961D02*
D03*
X21620D02*
D03*
D57*
X22480Y11181D02*
D03*
X16281Y11161D02*
D03*
D58*
X17717Y18465D02*
D03*
X10669Y22835D02*
D03*
X19646Y18445D02*
D03*
X20669Y19291D02*
D03*
X16260Y18307D02*
D03*
X9870Y17087D02*
D03*
X5827Y20630D02*
D03*
X15511Y20667D02*
D03*
Y20234D02*
D03*
Y19801D02*
D03*
Y19367D02*
D03*
X16111Y20667D02*
D03*
Y20234D02*
D03*
Y19801D02*
D03*
Y19367D02*
D03*
X20315Y20000D02*
D03*
X11024Y19370D02*
D03*
X10748Y14646D02*
D03*
X10709Y14094D02*
D03*
X11024Y20512D02*
D03*
Y18937D02*
D03*
X4055Y17953D02*
D03*
X7795Y22559D02*
D03*
X7717Y19803D02*
D03*
X11024Y19764D02*
D03*
Y20945D02*
D03*
X13976Y21892D02*
D03*
X9449Y13543D02*
D03*
X14016Y17992D02*
D03*
X13740Y18583D02*
D03*
X16260Y21811D02*
D03*
X18346Y19252D02*
D03*
X17717Y21614D02*
D03*
X20984Y24265D02*
D03*
Y23688D02*
D03*
Y23110D02*
D03*
Y24843D02*
D03*
X22795D02*
D03*
Y23110D02*
D03*
X22192Y24843D02*
D03*
Y23110D02*
D03*
X21588Y24843D02*
D03*
Y23110D02*
D03*
X21588Y15472D02*
D03*
Y17205D02*
D03*
X22192Y15472D02*
D03*
Y17205D02*
D03*
X22795Y15472D02*
D03*
Y17205D02*
D03*
X20984D02*
D03*
Y15472D02*
D03*
X4917Y12713D02*
D03*
X20984Y16050D02*
D03*
Y16627D02*
D03*
X13740Y21378D02*
D03*
D59*
X17362Y15039D02*
D03*
X17874Y15551D02*
D03*
X19252Y17520D02*
D03*
X19173Y22795D02*
D03*
X18543Y17520D02*
D03*
X18524Y22776D02*
D03*
D60*
X9724Y15876D02*
D03*
Y16171D02*
D03*
X11024Y15876D02*
D03*
Y16171D02*
D03*
D61*
X15866Y12441D02*
D03*
Y15039D02*
D03*
D62*
X6407Y14947D02*
D03*
Y14447D02*
D03*
Y15447D02*
D03*
Y15947D02*
D03*
X8632D02*
D03*
Y15447D02*
D03*
Y14947D02*
D03*
Y14447D02*
D03*
D63*
X5886Y17835D02*
D03*
Y18150D02*
D03*
Y18465D02*
D03*
Y18780D02*
D03*
Y19094D02*
D03*
Y19409D02*
D03*
Y19724D02*
D03*
Y20039D02*
D03*
X9232D02*
D03*
Y19724D02*
D03*
Y19409D02*
D03*
Y19094D02*
D03*
Y18780D02*
D03*
Y18465D02*
D03*
Y18150D02*
D03*
Y17835D02*
D03*
D64*
X6457Y20610D02*
D03*
X6772D02*
D03*
X7087D02*
D03*
X7402D02*
D03*
X7717D02*
D03*
X8031D02*
D03*
X8346D02*
D03*
X8661D02*
D03*
Y17264D02*
D03*
X8346D02*
D03*
X8031D02*
D03*
X7717D02*
D03*
X7402D02*
D03*
X7087D02*
D03*
X6772D02*
D03*
X6457D02*
D03*
M02*
