M48
;Layer_Color=9474304
;FILE_FORMAT=2:4
INCH,TZ
;TYPE=PLATED
T1F00S00C0.0157
T2F00S00C0.0236
T3F00S00C0.0315
T4F00S00C0.0354
T5F00S00C0.0394
T6F00S00C0.0433
T7F00S00C0.0669
T8F00S00C0.1299
T9F00S00C0.1339
%
T01
X4917Y12713
X9449Y13543
X10709Y14094
X10748Y14646
X20984Y15472
X21588
X22192
X22795
Y17205
X22192
X21588
X20984
Y16627
Y16050
X20669Y19291
X20315Y20000
X19646Y18445
X17717Y18465
X18346Y19252
X16111Y19367
Y19801
Y20234
Y20667
X16260Y21811
X17717Y21614
X16260Y18307
X20984Y23110
Y23688
Y24265
Y24843
X21588
X22192
X22795
Y23110
X22192
X21588
X15511Y20667
Y20234
Y19801
Y19367
X13740Y18583
X14016Y17992
X13740Y21378
X13976Y21892
X11024Y20945
Y20512
Y19764
Y19370
Y18937
X9870Y17087
X7717Y19803
X5827Y20630
X7795Y22559
X10669Y22835
X4055Y17953
T02
X17362Y15039
X17874Y15551
X18543Y17520
X19252
X19173Y22795
X18524Y22776
T03
X13937Y12165
X6024Y24035
X5039Y25020
X4055Y24035
T04
X17620Y12461
X18620
X19620
X20620
X20120Y13461
X19120
X18120
X21120
T05
X22047Y18976
Y19764
Y20551
Y21339
X4587Y21457
Y22244
Y20669
Y19882
T06
X4224Y16890
X5224
T07
X16281Y11161
X22480Y11181
T08
X17120Y9961
X21620
T09
X12953Y15512
X15669Y24803
X8583
M30
